<svg width="512" height="512" viewBox="0 0 512 512" fill="none" xmlns="http://www.w3.org/2000/svg">
  <rect width="512" height="512" rx="115" fill="#020617"/>
  <!-- 
     Calculation for consistency with PNG (Responsive Logic):
     In the generator, width was 62.5vmin.
     At 512x512, 62.5% of 512 = 320px.
     Scale = 320 / 24 = 13.3333
     Center Offset X = (512 - 320) / 2 = 96px.
     Vertical Shift Y = -20% of 320px = -64px.
     Center Offset Y (base) = 96px.
     Final Y = 96 - 64 = 32px.
  -->
  <g transform="translate(96, 32) scale(13.3333)">
    <path d="M10 16c.5.3 1.2.5 2 .5s1.5-.2 2-.5" stroke="#fed7aa" stroke-width="2" stroke-linecap="round" stroke-linejoin="round"/>
    <path d="M15 12h.01" stroke="#fed7aa" stroke-width="2" stroke-linecap="round" stroke-linejoin="round"/>
    <path d="M19.38 6.813A9 9 0 0 1 20.8 10.2a2 2 0 0 1 0 3.6 9 9 0 0 1-17.6 0 2 2 0 0 1 0-3.6A9 9 0 0 1 12 3c2 0 3.5 1.1 3.5 2.5s-.9 2.5-2 2.5c-.8 0-1.5-.4-1.5-1" stroke="#fed7aa" stroke-width="2" stroke-linecap="round" stroke-linejoin="round"/>
    <path d="M9 12h.01" stroke="#fed7aa" stroke-width="2" stroke-linecap="round" stroke-linejoin="round"/>
  </g>
</svg>
